<svg xmlns="http://www.w3.org/2000/svg" viewBox="0 0 100 100" preserveAspectRatio="xMidYMid meet" style="width: 100%; height: 100%; transform: translate3d(0px, 0px, 0px);"><defs><clipPath id="__lottie_element_11"><rect width="100" height="100" x="0" y="0"/></clipPath></defs><g clip-path="url(#__lottie_element_11)"><g transform="matrix(0,-5,5,0,47.72200012207031,94.58100128173828)" opacity="1" style="display: block;"><g opacity="1" transform="matrix(1,0,0,1,0,0)"><path stroke-linecap="butt" stroke-linejoin="miter" fill-opacity="0" stroke-miterlimit="4" stroke="rgb(255,255,255)" stroke-opacity="1" stroke-width="1.5" d="M0 0"/></g></g><g transform="matrix(0,-5,5,0,46.39299774169922,49.999000549316406)" opacity="1" style="display: block;"><g opacity="1" transform="matrix(1,0,0,1,0,0)"><path stroke-linecap="butt" stroke-linejoin="miter" fill-opacity="0" stroke-miterlimit="4" stroke="rgb(255,255,255)" stroke-opacity="1" stroke-width="1.5" d="M0 0"/></g></g><g transform="matrix(0,-5,5,0,47.72200012207031,94.58100128173828)" opacity="1" style="display: block;"><g opacity="1" transform="matrix(1,0,0,1,0,0)"><path stroke-linecap="butt" stroke-linejoin="miter" fill-opacity="0" stroke-miterlimit="4" stroke="rgb(32,105,247)" stroke-opacity="1" stroke-width="1.5" d=" M17.83099937438965,0 C17.83099937438965,0 8.916000366210938,8.914999961853027 8.916000366210938,8.914999961853027 C8.916000366210938,8.914999961853027 0,0 0,0"/></g></g><g transform="matrix(0,-5,5,0,46.39299774169922,49.999000549316406)" opacity="1" style="display: block;"><g opacity="1" transform="matrix(1,0,0,1,0,0)"><path stroke-linecap="butt" stroke-linejoin="miter" fill-opacity="0" stroke-miterlimit="4" stroke="rgb(32,105,247)" stroke-opacity="1" stroke-width="1.5" d=" M0,9.180999755859375 C0,9.180999755859375 0,-9.180999755859375 0,-9.180999755859375"/></g></g></g></svg>