<svg width="55" height="55" viewBox="0 0 55 55" fill="none" xmlns="http://www.w3.org/2000/svg">
<path id="Vector" d="M53.754 24.8919H28.714V32.3219H46.474C45.594 42.7219 36.928 47.1859 28.744 47.1859C26.1514 47.1973 23.5824 46.6921 21.1872 45.6998C18.7919 44.7075 16.6183 43.2479 14.7933 41.4063C12.9683 39.5648 11.5285 37.3781 10.5578 34.9739C9.58719 32.5698 9.10521 29.9964 9.14004 27.4039C9.14004 16.1559 17.848 7.49594 28.768 7.49594C37.192 7.49594 42.156 12.8659 42.156 12.8659L47.356 7.47795C47.356 7.47795 40.676 0.0439453 28.496 0.0439453C12.986 0.0439453 0.988037 13.1339 0.988037 27.2719C0.988037 41.1259 12.274 54.6359 28.888 54.6359C43.502 54.6359 54.2 44.6239 54.2 29.8199C54.2 26.6959 53.746 24.8919 53.746 24.8919H53.754Z" fill="white"/>
</svg>
